<svg width="16" height="16" viewBox="0 0 16 16" fill="none" xmlns="http://www.w3.org/2000/svg">
    <path d="M12.6667 13.3334H3.33341C3.1566 13.3334 2.98703 13.4036 2.86201 13.5286C2.73699 13.6537 2.66675 13.8232 2.66675 14C2.66675 14.1769 2.73699 14.3464 2.86201 14.4714C2.98703 14.5965 3.1566 14.6667 3.33341 14.6667H12.6667C12.8436 14.6667 13.0131 14.5965 13.1382 14.4714C13.2632 14.3464 13.3334 14.1769 13.3334 14C13.3334 13.8232 13.2632 13.6537 13.1382 13.5286C13.0131 13.4036 12.8436 13.3334 12.6667 13.3334Z" fill="white"/>
    <path d="M3.33329 12H3.39329L6.17329 11.7467C6.47782 11.7163 6.76264 11.5821 6.97995 11.3667L12.98 5.36665C13.2128 5.12063 13.3387 4.79233 13.3299 4.45368C13.3212 4.11503 13.1786 3.79366 12.9333 3.55999L11.1066 1.73332C10.8682 1.50938 10.5558 1.38089 10.2288 1.37229C9.90187 1.36368 9.58314 1.47557 9.33329 1.68665L3.33329 7.68665C3.1178 7.90396 2.98362 8.18879 2.95329 8.49332L2.66662 11.2733C2.65764 11.371 2.67031 11.4694 2.70373 11.5616C2.73715 11.6538 2.79049 11.7374 2.85995 11.8067C2.92225 11.8684 2.99612 11.9173 3.07735 11.9505C3.15857 11.9837 3.24555 12.0005 3.33329 12ZM10.18 2.66665L12 4.48665L10.6666 5.78665L8.87995 3.99999L10.18 2.66665ZM4.24662 8.60665L7.99995 4.87999L9.79995 6.67999L6.06662 10.4133L4.06662 10.6L4.24662 8.60665Z" fill="white"/>
</svg>
