<svg width="16" height="16" viewBox="0 0 16 16" fill="none" xmlns="http://www.w3.org/2000/svg">
    <path d="M13.9999 3.99998H10.6666V2.88665C10.6509 2.45986 10.4667 2.05669 10.1543 1.76551C9.84188 1.47433 9.42675 1.31891 8.99992 1.33332H6.99992C6.57309 1.31891 6.15796 1.47433 5.84554 1.76551C5.53312 2.05669 5.34889 2.45986 5.33325 2.88665V3.99998H1.99992C1.82311 3.99998 1.65354 4.07022 1.52851 4.19525C1.40349 4.32027 1.33325 4.48984 1.33325 4.66665C1.33325 4.84346 1.40349 5.01303 1.52851 5.13805C1.65354 5.26308 1.82311 5.33332 1.99992 5.33332H2.66659V12.6666C2.66659 13.1971 2.8773 13.7058 3.25237 14.0809C3.62744 14.4559 4.13615 14.6666 4.66659 14.6666H11.3333C11.8637 14.6666 12.3724 14.4559 12.7475 14.0809C13.1225 13.7058 13.3333 13.1971 13.3333 12.6666V5.33332H13.9999C14.1767 5.33332 14.3463 5.26308 14.4713 5.13805C14.5963 5.01303 14.6666 4.84346 14.6666 4.66665C14.6666 4.48984 14.5963 4.32027 14.4713 4.19525C14.3463 4.07022 14.1767 3.99998 13.9999 3.99998ZM6.66659 2.88665C6.66659 2.77998 6.80659 2.66665 6.99992 2.66665H8.99992C9.19325 2.66665 9.33325 2.77998 9.33325 2.88665V3.99998H6.66659V2.88665ZM11.9999 12.6666C11.9999 12.8435 11.9297 13.013 11.8047 13.1381C11.6796 13.2631 11.5101 13.3333 11.3333 13.3333H4.66659C4.48977 13.3333 4.32021 13.2631 4.19518 13.1381C4.07016 13.013 3.99992 12.8435 3.99992 12.6666V5.33332H11.9999V12.6666Z" fill="white"/>
</svg>
